HIERARCHY
ROOT Bip001_Pelvis
{
  OFFSET 34.4345 95.6767 -26.8758
  CHANNELS 6 Xposition Yposition Zposition Zrotation Xrotation Yrotation
  JOINT Bip001_Spine
  {
    OFFSET 1.4188e-005 10.2191 -0.0116013
    CHANNELS 3 Zrotation Xrotation Yrotation
    JOINT Bip001_L_Thigh
    {
      OFFSET 11.0458 -10.2192 0.0116197
      CHANNELS 3 Zrotation Xrotation Yrotation
      JOINT Bip001_L_Calf
      {
        OFFSET -0.707118 -44.0221 0.360014
        CHANNELS 3 Zrotation Xrotation Yrotation
        JOINT Bip001_L_Foot
        {
          OFFSET -0.651902 -40.5938 -3.56146
          CHANNELS 3 Zrotation Xrotation Yrotation
          JOINT Bip001_L_Toe0
          {
            OFFSET 0.0530839 -10.2181 13.1504
            CHANNELS 3 Zrotation Xrotation Yrotation
            End Site
            {
              OFFSET -1.02532e-005 0 7.55606
            }
          }
        }
      }
    }
    JOINT Bip001_R_Thigh
    {
      OFFSET -11.0458 -10.2191 0.0115893
      CHANNELS 3 Zrotation Xrotation Yrotation
      JOINT Bip001_R_Calf
      {
        OFFSET 0.706994 -44.0221 0.35984
        CHANNELS 3 Zrotation Xrotation Yrotation
        JOINT Bip001_R_Foot
        {
          OFFSET 0.651786 -40.5938 -3.5613
          CHANNELS 3 Zrotation Xrotation Yrotation
          JOINT Bip001_R_Toe0
          {
            OFFSET -0.0531479 -10.2181 13.1504
            CHANNELS 3 Zrotation Xrotation Yrotation
            End Site
            {
              OFFSET -1.02894e-005 0 7.55606
            }
          }
        }
      }
    }
    JOINT Bip001_Spine1
    {
      OFFSET 1.87041e-005 14.5736 1.08638
      CHANNELS 3 Zrotation Xrotation Yrotation
      JOINT Bip001_Spine2
      {
        OFFSET 2.24614e-005 14.5058 -1.69078
        CHANNELS 3 Zrotation Xrotation Yrotation
        JOINT Bip001_Neck
        {
          OFFSET 2.20278e-005 15.3945 -0.489414
          CHANNELS 3 Zrotation Xrotation Yrotation
          JOINT Bip001_L_Clavicle
          {
            OFFSET 6.06036 -0.000579998 0.00836775
            CHANNELS 3 Zrotation Xrotation Yrotation
            JOINT Bip001_L_UpperArm
            {
              OFFSET 11.5509 -0.0600302 0.00193952
              CHANNELS 3 Zrotation Xrotation Yrotation
              JOINT Bip001_L_Forearm
              {
                OFFSET 25.9523 0.0806089 -2.15551
                CHANNELS 3 Zrotation Xrotation Yrotation
                JOINT Bip001_L_Hand
                {
                  OFFSET 32.2475 0.153767 1.63968
                  CHANNELS 3 Zrotation Xrotation Yrotation
                  JOINT Bip001_L_Finger0
                  {
                    OFFSET 6.04639 -2.20976 5.90322
                    CHANNELS 3 Zrotation Xrotation Yrotation
                    End Site
                    {
                      OFFSET 4.22375 -1.43895 0.606485
                    }
                  }
                  JOINT Bip001_L_Finger1
                  {
                    OFFSET 11.0826 -0.704819 -0.198153
                    CHANNELS 3 Zrotation Xrotation Yrotation
                    End Site
                    {
                      OFFSET 6.20027 -0.397518 -0.0787166
                    }
                  }
                }
              }
            }
          }
          JOINT Bip001_R_Clavicle
          {
            OFFSET -6.06037 -0.000563197 0.00835105
            CHANNELS 3 Zrotation Xrotation Yrotation
            JOINT Bip001_R_UpperArm
            {
              OFFSET -11.5509 -0.0599978 0.00190698
              CHANNELS 3 Zrotation Xrotation Yrotation
              JOINT Bip001_R_Forearm
              {
                OFFSET -25.9523 0.0806822 -2.15589
                CHANNELS 3 Zrotation Xrotation Yrotation
                JOINT Bip001_R_Hand
                {
                  OFFSET -32.2475 0.153859 1.63989
                  CHANNELS 3 Zrotation Xrotation Yrotation
                  JOINT Bip001_R_Finger0
                  {
                    OFFSET -6.04641 -2.20976 5.90317
                    CHANNELS 3 Zrotation Xrotation Yrotation
                    End Site
                    {
                      OFFSET -4.22376 -1.43895 0.60647
                    }
                  }
                  JOINT Bip001_R_Finger1
                  {
                    OFFSET -11.0826 -0.704794 -0.198182
                    CHANNELS 3 Zrotation Xrotation Yrotation
                    End Site
                    {
                      OFFSET -6.20028 -0.397504 -0.0787333
                    }
                  }
                }
              }
            }
          }
          JOINT Bip001_Head
          {
            OFFSET 1.09673e-005 11.2744 2.05948
            CHANNELS 3 Zrotation Xrotation Yrotation
            End Site
            {
              OFFSET 2.89576e-005 20.8808 -2.77728e-005
            }
          }
        }
      }
    }
  }
}
MOTION
Frames:	5
Frame Time:	0.04
34.7954 92.3701 -28.6581 0.120782 -6.34725 -5.15883 0.430225 2.22381 -2.56749 7.60058 -2.45093 16.7687 -3.84721 27.1878 -1.1334 9.54771 -12.3835 0.561167 1.48434 -8.86721 0.20585 -6.05271 -7.33652 5.39208 0.160686 29.9997 4.08241 -11.5712 -16.1884 -3.21432 4.30609 -13.6419 4.58015 0.954629 4.42617 -5.15727 0.954993 4.42617 -5.1573 10.0313 0.881238 6.89627 -19.8564 3.31206 -13.5037 -76.1261 28.9285 34.3505 17.2482 -0.0865662 -49.6459 10.825 -0.672423 -8.94293 9.54166e-015 3.18055e-015 -1.59028e-015 9.54166e-015 0 -3.18055e-015 6.23737 -2.29028 -13.0678 6.60437 -48.3609 -44.0523 -27.9397 -2.8118 116.375 -4.31491 -4.35273 10.969 -3.18055e-015 0 -1.27222e-014 -3.18055e-015 3.18056e-015 -6.36111e-015 -10.9403 -14.6476 11.142 
35.2886 91.4019 -27.8821 0.138979 -8.10054 -7.86024 0.451506 2.31845 -2.49208 7.88371 -1.01492 16.0541 -6.76401 30.4447 2.86084 9.36544 -15.6132 0.826433 0.992506 -8.22441 0.592197 -6.93805 -7.96163 5.74114 -0.0573365 34.3227 4.82268 -12.0886 -18.388 -2.15353 4.50237 -14.1691 4.79039 1.00433 4.61502 -5.00752 1.00445 4.61498 -5.00803 9.82721 3.15653 7.84796 -19.2333 1.58287 -16.5961 -77.7886 30.408 39.1965 16.0244 -0.14076 -52.5859 10.6034 0.220888 -8.93543 -2.20695e-032 -1.59028e-015 -7.95139e-016 -3.18055e-015 0 7.95139e-016 3.08913 -4.51858 -15.5326 -6.17265 -54.6606 -44.7813 -27.791 -3.53309 117.324 -4.11231 -6.16856 12.7267 3.18055e-015 -9.54166e-015 6.36111e-015 6.36111e-015 -3.18056e-015 3.18055e-015 -12.3837 -15.7234 12.3161 
35.5723 90.2616 -27.0769 -0.263079 -9.6971 -9.7116 0.509808 2.50108 -2.70336 9.04899 -0.0440794 18.5272 -8.1684 34.8853 3.10221 7.02722 -20.3264 0.952842 0.64638 -6.50563 0.575416 -7.08285 -8.44895 7.06145 -0.0308417 38.4886 5.25228 -12.9475 -20.4144 -2.3536 4.7288 -14.7043 4.92835 1.13302 4.97526 -5.4366 1.13769 4.97524 -5.43647 9.09984 4.05452 9.65525 -17.4203 0.848607 -18.5227 -79.0981 31.3297 42.3791 17.7225 1.68892 -55.1408 6.22242 1.32287 -7.18457 6.36111e-015 -1.59028e-015 2.38542e-015 3.18055e-015 -1.59028e-015 2.38542e-015 1.49105 -5.00628 -16.4381 -16.9342 -60.7663 -44.9283 -31.8478 -5.29617 114.44 -4.15729 -7.96731 13.1293 6.36111e-015 1.90833e-014 -3.18055e-015 6.36111e-015 1.59028e-014 -6.36111e-015 -12.8775 -16.3373 13.9772 
35.7918 89.4654 -26.3991 -0.269701 -10.89 -9.88065 0.506945 2.6384 -3.12723 9.51182 0.582319 19.4793 -8.54175 37.9844 3.22828 1.79746 -25.4806 0.368184 -0.817053 -2.98453 1.50385 -7.5043 -8.36491 7.68221 0.352498 41.1886 5.6871 -14.1153 -21.6934 -3.51232 4.87462 -15.0908 5.09418 1.15492 5.24576 -6.28537 1.16054 5.24517 -6.28657 8.96103 3.51272 11.4863 -15.9947 1.45572 -19.8278 -80.801 32.4604 44.6575 18.6106 2.38951 -56.4933 4.3978 1.08835 -7.16693 -6.36111e-015 -7.95139e-016 -1.98785e-016 -6.36111e-015 -7.95139e-016 -1.98785e-016 0.636685 -4.26606 -18.022 -19.6889 -66.5842 -38.1457 -37.3001 -5.74213 109.83 -3.033 -9.61286 13.5821 1.76556e-031 3.18055e-015 -3.18055e-015 1.59028e-015 3.18056e-015 -9.54166e-015 -13.8405 -15.8074 15.8457 
35.9454 88.9555 -25.8943 -0.459305 -11.6898 -9.2721 0.612405 2.63533 -3.42161 9.70812 0.782935 19.2715 -8.11908 40.2818 2.9156 -2.66874 -29.0884 -0.523039 -2.58539 0.32411 2.99771 -7.62147 -7.71658 7.52565 0.23079 42.5688 5.80769 -14.7446 -22.4798 -4.1555 4.95943 -15.3285 5.20822 1.38629 5.22926 -6.88344 1.38367 5.22957 -6.88287 8.09105 3.14004 12.8781 -15.1568 2.07192 -21.2746 -81.189 33.3929 45.336 18.4742 2.39393 -56.0779 3.30688 1.4582 -6.31304 -3.18055e-015 -3.97569e-016 -1.09332e-015 -2.27592e-032 -1.19271e-015 -1.09332e-015 0.824582 -3.61072 -17.4656 -19.661 -71.9912 -31.4796 -41.8939 -5.17206 105.48 -0.336622 -8.24961 14.3574 -3.18055e-015 3.18055e-015 -0 -4.77083e-015 0 3.18055e-015 -14.6619 -15.8439 16.9883 
